<svg id="Layer_1" data-name="Layer 1" xmlns="http://www.w3.org/2000/svg" viewBox="0 0 512 512"><defs><style>.cls-1{fill:#25e277;}</style></defs><title>logo-onda-finance</title><path class="cls-1" d="M62.08,293a7.08,7.08,0,0,1,1.13-2.34,69.46,69.46,0,0,1,30.94-27,77.4,77.4,0,0,1,25-6.52,115.14,115.14,0,0,1,38,3.06,202.15,202.15,0,0,1,36.82,13.09q36.81,16.68,73.69,33.19c7.29,3.25,14.91,5.72,22.47,8.29a563.56,563.56,0,0,0,54.79,15.65c2.5.58,5,1.13,7.5,1.7,0,0,.05.07.1.14-.41.58-1.11.63-1.7.84A99,99,0,0,1,332,337.67a153.32,153.32,0,0,1-26,1.73,215.93,215.93,0,0,1-53.47-7.93,312.61,312.61,0,0,1-67.81-27.84,194.63,194.63,0,0,0-52.67-19.86c-3.61-.78-7.26-1.39-11-1.82a3.68,3.68,0,0,0,0,2.41,118.45,118.45,0,0,0,16.51,43.16,137.4,137.4,0,0,0,47.45,47,141.91,141.91,0,0,0,40.27,15.85A128.12,128.12,0,0,0,260,393.57c21.22-.85,41.57-5.35,60.73-14.7A132.4,132.4,0,0,0,374.56,330a2.34,2.34,0,0,1,2.29-1.27q22,0,44,0a2.71,2.71,0,0,1,1.42.18,5.18,5.18,0,0,1-.69,2,173.49,173.49,0,0,1-19,31.94,185.47,185.47,0,0,1-49.4,46.49,177.59,177.59,0,0,1-57.35,23.76,201.38,201.38,0,0,1-27.2,4.14,115.28,115.28,0,0,1-19.13.39,195.44,195.44,0,0,1-23.7-3.4,200,200,0,0,1-50-17.3q-49.5-25-76.76-73.34a214.09,214.09,0,0,1-19.33-46.47c-.94-3.26-1.94-6.51-2.93-9.76-.39-1.29-.42-1.3-1.72-.79a69.05,69.05,0,0,0-11.34,5.68A3.72,3.72,0,0,1,62.08,293Z"/><path class="cls-1" d="M496,239.76a41.89,41.89,0,0,1-2.67,7.94c-9.65,22.44-24.86,39.84-46.67,51.18a104.33,104.33,0,0,1-32,10.29,133.54,133.54,0,0,1-23.71,1.65,182.1,182.1,0,0,1-25.1-2.3,238,238,0,0,1-32.51-7.66c-5.13-1.58-10-3.84-15-5.87q-52.45-21.47-104-45.08-13.47-6.21-26.82-12.71a146.48,146.48,0,0,0-36.25-11.9,148.69,148.69,0,0,0-32.2-2.84,137.52,137.52,0,0,0-61.6,15.89A162.41,162.41,0,0,0,19,266.74c-.93.91-1.83,1.86-2.86,2.9a1.39,1.39,0,0,1,0-1.27,154.82,154.82,0,0,1,39.07-63.13,125.84,125.84,0,0,1,61.43-32.64,92.12,92.12,0,0,1,14.89-1.77c5.43-.29,10.86-.39,16.29-.23,26.31.8,51.88,5.42,76.51,14.9,8.86,3.42,17.27,7.8,25.75,12,30.48,15.16,61,30.3,91.58,45.18,2.47,1.21,4.87,2.52,7.26,3.87A163.17,163.17,0,0,0,397,264.41a127.24,127.24,0,0,0,34,2.34,107.07,107.07,0,0,0,57.13-21C490.79,243.85,493.32,241.77,496,239.76Z"/><path class="cls-1" d="M382.36,202.35A40.17,40.17,0,0,0,380,194a82.69,82.69,0,0,0-14.46-25.17c-19.23-23.64-43.35-39.95-72.77-48.23A123.88,123.88,0,0,0,256,115.84a148.88,148.88,0,0,0-52.52,11.23,125.65,125.65,0,0,0-35.27,21.18c-1.13,1-2,2.39-3.43,2.8a17.27,17.27,0,0,1-4.27.18l-36,1.1c-5.6.18-11.21.39-16.82.58-.52,0-1,0-1.68,0a3.29,3.29,0,0,1,1-1.71,190.16,190.16,0,0,1,21.89-23.85A209.26,209.26,0,0,1,179,92.58,176,176,0,0,1,247.7,74.43a174,174,0,0,1,22.72.19,170.73,170.73,0,0,1,45.31,9.74,190.87,190.87,0,0,1,52.57,29.35,188.26,188.26,0,0,1,33.2,32.71,145.25,145.25,0,0,1,25.18,48.46A124.25,124.25,0,0,1,430,210.62c.06.42.12.83.19,1.24.32,1.83.32,1.82,2.25,1.95a111.27,111.27,0,0,0,17.7,0c10.17-.93,19.85-3.35,28.39-9.29.75-.52,1.33-1.36,2.36-1.42l0,0a6.47,6.47,0,0,1-1,2.66c-5.38,11-13.87,18.65-25,23.48a61.94,61.94,0,0,1-19,4.68c-12.82,1.21-25.33-.63-37.71-3.78a172.48,172.48,0,0,1-40.48-16.39c-21.17-11.6-42.39-23.1-64.05-33.76-3.8-1.87-7.63-3.65-11.45-5.48a4.43,4.43,0,0,1-1.74-1.07c.68,0,1.16,0,1.65,0A150.3,150.3,0,0,1,304.23,176c21,4,40.93,10.93,60.29,19.79,5.42,2.48,11,4.49,16.65,6.47a6,6,0,0,0,1,.19c.07.12.17.17.26.08S382.51,202.39,382.36,202.35Z"/><path class="cls-1" d="M480.85,203.12c-.07-.13,0-.19.09-.2s0,.07,0,.1c0,.24,0-.09-.14.07Z"/><path d="M382.36,202.35c.15,0,.2.13.11.22s-.19,0-.26-.08Z"/></svg>